# xmcd CD database file
#
# Track frame offsets:
#	150
#	14190
#	28580
#	42050
#	58800
#	80025
#	106520
#	119570
#	141450
#	154150
#	165315
#	178470
#	192035
#	211210
#	225255
#	237765
#	253850
#	267650
#
# Disc length: 3722 seconds
#
# Revision: 3
# Processed by: cddbd v1.5.2PL0 Copyright (c) Steve Scherf et al.
# Submitted via: CDex 1.51
#
DISCID=fd0e8812
DTITLE=Various Artist - Saturn Barjazz Edition CD 2
DYEAR=2002
DGENRE=Jazz
TTITLE0=Walter Wanderley - Summer Samba
TTITLE1=Shirley Horn - Hit The Road Jack
TTITLE2=Les McCann - Goin' Out Of My Head
TTITLE3=Mel Torme - Blue Moon
TTITLE4=Till Brönner - Have You Met Chet?
TTITLE5=Ella Fitzgerald and Louis Armstrong - Cheek To Cheek
TTITLE6=Antonio Carlos Jobim - Wave
TTITLE7=Wes Montgomery - Bumpin' On Sunset
TTITLE8=Marvin Gaye - Sweet Lorraine
TTITLE9=Dinah Washington - Cry Me A River
TTITLE10=Billie Holiday - That Old Devil Called Love
TTITLE11=Sarah Vaughan - Misty
TTITLE12=Stan Getz and Joao Gilberto, feat. Astrud Gilberto - Corcovado (Quiet Nights Of Quiet Stars)
TTITLE13=Helen Merrill - Anything Goes
TTITLE14=Blossom Dearie - Lover Man
TTITLE15=Ella Fitzgerald - Let's Do It (Let's Fall In Love)
TTITLE16=Lou Rawls - If I Were A Magician
TTITLE17=Dinah Washington - What A Difference A Day Made
EXTD=Saturn Exklusiv Edition YEAR: 2002
EXTT0=
EXTT1=
EXTT2=
EXTT3=
EXTT4=
EXTT5=
EXTT6=
EXTT7=
EXTT8=
EXTT9=
EXTT10=
EXTT11=
EXTT12=
EXTT13=
EXTT14=
EXTT15=
EXTT16=
EXTT17=
PLAYORDER=
